# xmcd
#
# Track frame offsets:
#	150
#	12299
#	31256
#	62886
#	88305
#	105099
#	125098
#	150823
#	170740
#	188982
#	201131
#
# Disc length: 2983 seconds
#
# Revision: 0
# Processed by: cddbd v1.5.2PL0 Copyright (c) Steve Scherf et al.
# Submitted via: EasyCDDAExtractor 16.0.8.1
#
DISCID=8a0ba50b
DTITLE=Aeroplano - La Maquina De Hacer Musica
DYEAR=2000
DGENRE=Pop
TTITLE0=Solo Yo Y Mi Imaginacion
TTITLE1=Aliento Eterno
TTITLE2=Astronauta
TTITLE3=Sonrisa
TTITLE4=No Es Mas Que Un Sueño
TTITLE5=Solo Y Sin El Sol
TTITLE6=Fluidos
TTITLE7=Planeta Gris
TTITLE8=10 Años De Soledad
TTITLE9=If I Had Known Before
TTITLE10=Bonus Track
EXTD=
EXTT0=
EXTT1=
EXTT2=
EXTT3=
EXTT4=
EXTT5=
EXTT6=
EXTT7=
EXTT8=
EXTT9=
EXTT10=
PLAYORDER=
